<mxfile host="app.diagrams.net" modified="2023-03-08T05:24:55.327Z" agent="5.0 (Windows NT 10.0; Win64; x64) AppleWebKit/537.36 (KHTML, like Gecko) Chrome/110.0.0.0 Safari/537.36" etag="gtUHuxWFNRwHKCwjDyrn" version="21.0.2" type="github">
  <diagram name="第 1 页" id="8ZLBTSUePlEYVoYlw3p7">
    <mxGraphModel dx="1630" dy="564" grid="1" gridSize="10" guides="1" tooltips="1" connect="0" arrows="1" fold="1" page="1" pageScale="1" pageWidth="827" pageHeight="1169" math="0" shadow="0">
      <root>
        <mxCell id="0" />
        <mxCell id="1" parent="0" />
        <mxCell id="6dN66q1XNVDlSJuSXiCx-31" value="" style="rounded=0;whiteSpace=wrap;html=1;fontStyle=0;fontSize=10;" parent="1" vertex="1">
          <mxGeometry x="-95" y="108" width="615" height="232" as="geometry" />
        </mxCell>
        <mxCell id="6dN66q1XNVDlSJuSXiCx-3" value="&lt;p class=&quot;MsoNormal&quot; style=&quot;font-size: 10px;&quot;&gt;&lt;br style=&quot;font-size: 10px;&quot;&gt;&lt;/p&gt;" style="shape=dataStorage;whiteSpace=wrap;html=1;fixedSize=1;rotation=-180;fontStyle=0;fontSize=10;" parent="1" vertex="1">
          <mxGeometry x="-80" y="130" width="100" height="50" as="geometry" />
        </mxCell>
        <mxCell id="6dN66q1XNVDlSJuSXiCx-7" value="侦察" style="text;html=1;strokeColor=none;fillColor=none;align=center;verticalAlign=middle;whiteSpace=wrap;rounded=0;fontStyle=0;fontSize=10;" parent="1" vertex="1">
          <mxGeometry x="-65" y="142.5" width="70" height="25" as="geometry" />
        </mxCell>
        <mxCell id="6dN66q1XNVDlSJuSXiCx-13" value="&lt;p class=&quot;MsoNormal&quot; style=&quot;font-size: 10px;&quot;&gt;&lt;br style=&quot;font-size: 10px;&quot;&gt;&lt;/p&gt;" style="shape=dataStorage;whiteSpace=wrap;html=1;fixedSize=1;rotation=-180;fontStyle=0;fontSize=10;" parent="1" vertex="1">
          <mxGeometry y="130" width="100" height="50" as="geometry" />
        </mxCell>
        <mxCell id="6dN66q1XNVDlSJuSXiCx-14" value="&lt;p class=&quot;MsoNormal&quot; style=&quot;font-size: 10px;&quot;&gt;&lt;br style=&quot;font-size: 10px;&quot;&gt;&lt;/p&gt;" style="shape=dataStorage;whiteSpace=wrap;html=1;fixedSize=1;rotation=-180;fontStyle=0;fontSize=10;" parent="1" vertex="1">
          <mxGeometry x="80" y="130" width="100" height="50" as="geometry" />
        </mxCell>
        <mxCell id="6dN66q1XNVDlSJuSXiCx-15" value="&lt;p class=&quot;MsoNormal&quot; style=&quot;font-size: 10px;&quot;&gt;&lt;br style=&quot;font-size: 10px;&quot;&gt;&lt;/p&gt;" style="shape=dataStorage;whiteSpace=wrap;html=1;fixedSize=1;rotation=-180;fontStyle=0;fontSize=10;" parent="1" vertex="1">
          <mxGeometry x="160" y="130" width="100" height="50" as="geometry" />
        </mxCell>
        <mxCell id="6dN66q1XNVDlSJuSXiCx-16" value="&lt;p class=&quot;MsoNormal&quot; style=&quot;font-size: 10px;&quot;&gt;&lt;br style=&quot;font-size: 10px;&quot;&gt;&lt;/p&gt;" style="shape=dataStorage;whiteSpace=wrap;html=1;fixedSize=1;rotation=-180;fontStyle=0;fontSize=10;" parent="1" vertex="1">
          <mxGeometry x="240" y="130" width="100" height="50" as="geometry" />
        </mxCell>
        <mxCell id="6dN66q1XNVDlSJuSXiCx-17" value="&lt;p class=&quot;MsoNormal&quot; style=&quot;font-size: 10px;&quot;&gt;&lt;br style=&quot;font-size: 10px;&quot;&gt;&lt;/p&gt;" style="shape=dataStorage;whiteSpace=wrap;html=1;fixedSize=1;rotation=-180;fontStyle=0;fontSize=10;" parent="1" vertex="1">
          <mxGeometry x="320" y="130" width="100" height="50" as="geometry" />
        </mxCell>
        <mxCell id="6dN66q1XNVDlSJuSXiCx-18" value="资源开发" style="text;html=1;strokeColor=none;fillColor=none;align=center;verticalAlign=middle;whiteSpace=wrap;rounded=0;fontStyle=0;fontSize=10;" parent="1" vertex="1">
          <mxGeometry x="14" y="142.5" width="70" height="25" as="geometry" />
        </mxCell>
        <mxCell id="6dN66q1XNVDlSJuSXiCx-19" value="信息窃取" style="text;html=1;strokeColor=none;fillColor=none;align=center;verticalAlign=middle;whiteSpace=wrap;rounded=0;fontStyle=0;fontSize=10;" parent="1" vertex="1">
          <mxGeometry x="335" y="142.5" width="70" height="25" as="geometry" />
        </mxCell>
        <mxCell id="6dN66q1XNVDlSJuSXiCx-20" value="初始访问" style="text;html=1;strokeColor=none;fillColor=none;align=center;verticalAlign=middle;whiteSpace=wrap;rounded=0;fontStyle=0;fontSize=10;" parent="1" vertex="1">
          <mxGeometry x="95" y="142.5" width="70" height="25" as="geometry" />
        </mxCell>
        <mxCell id="6dN66q1XNVDlSJuSXiCx-21" value="......." style="text;html=1;strokeColor=none;fillColor=none;align=center;verticalAlign=middle;whiteSpace=wrap;rounded=0;fontStyle=0;fontSize=10;" parent="1" vertex="1">
          <mxGeometry x="175" y="142.5" width="70" height="25" as="geometry" />
        </mxCell>
        <mxCell id="6dN66q1XNVDlSJuSXiCx-22" value="命令控制" style="text;html=1;strokeColor=none;fillColor=none;align=center;verticalAlign=middle;whiteSpace=wrap;rounded=0;fontStyle=0;fontSize=10;" parent="1" vertex="1">
          <mxGeometry x="255" y="142.5" width="70" height="25" as="geometry" />
        </mxCell>
        <mxCell id="6dN66q1XNVDlSJuSXiCx-23" value="&lt;p class=&quot;MsoNormal&quot; style=&quot;font-size: 10px;&quot;&gt;&lt;br style=&quot;font-size: 10px;&quot;&gt;&lt;/p&gt;" style="shape=dataStorage;whiteSpace=wrap;html=1;fixedSize=1;rotation=-180;fontStyle=0;fontSize=10;" parent="1" vertex="1">
          <mxGeometry x="400" y="130" width="100" height="50" as="geometry" />
        </mxCell>
        <mxCell id="6dN66q1XNVDlSJuSXiCx-28" value="产生效果" style="text;html=1;strokeColor=none;fillColor=none;align=center;verticalAlign=middle;whiteSpace=wrap;rounded=0;fontStyle=0;fontSize=10;" parent="1" vertex="1">
          <mxGeometry x="415" y="142.5" width="70" height="25" as="geometry" />
        </mxCell>
        <mxCell id="6dN66q1XNVDlSJuSXiCx-32" value="网络扫描" style="text;html=1;strokeColor=none;fillColor=none;align=center;verticalAlign=middle;whiteSpace=wrap;rounded=0;fontStyle=0;fontSize=10;" parent="1" vertex="1">
          <mxGeometry x="-65" y="190" width="60" height="30" as="geometry" />
        </mxCell>
        <mxCell id="6dN66q1XNVDlSJuSXiCx-33" value="数据库扫描" style="text;html=1;strokeColor=none;fillColor=none;align=center;verticalAlign=middle;whiteSpace=wrap;rounded=0;fontStyle=0;fontSize=10;" parent="1" vertex="1">
          <mxGeometry x="-65" y="224" width="65" height="30" as="geometry" />
        </mxCell>
        <mxCell id="6dN66q1XNVDlSJuSXiCx-34" value="网络钓鱼" style="text;html=1;strokeColor=none;fillColor=none;align=center;verticalAlign=middle;whiteSpace=wrap;rounded=0;fontStyle=0;fontSize=10;" parent="1" vertex="1">
          <mxGeometry x="-67.5" y="260" width="65" height="30" as="geometry" />
        </mxCell>
        <mxCell id="6dN66q1XNVDlSJuSXiCx-35" value="信息泄露" style="text;html=1;strokeColor=none;fillColor=none;align=center;verticalAlign=middle;whiteSpace=wrap;rounded=0;fontStyle=0;fontSize=10;" parent="1" vertex="1">
          <mxGeometry x="14" y="190" width="60" height="30" as="geometry" />
        </mxCell>
        <mxCell id="6dN66q1XNVDlSJuSXiCx-36" value="上传恶意软件" style="text;html=1;strokeColor=none;fillColor=none;align=center;verticalAlign=middle;whiteSpace=wrap;rounded=0;fontStyle=0;fontSize=10;" parent="1" vertex="1">
          <mxGeometry x="11" y="224" width="76" height="30" as="geometry" />
        </mxCell>
        <mxCell id="6dN66q1XNVDlSJuSXiCx-37" value="网络扫描" style="text;html=1;strokeColor=none;fillColor=none;align=center;verticalAlign=middle;whiteSpace=wrap;rounded=0;fontStyle=0;fontSize=10;" parent="1" vertex="1">
          <mxGeometry x="14" y="260" width="60" height="30" as="geometry" />
        </mxCell>
        <mxCell id="6dN66q1XNVDlSJuSXiCx-38" value="远程服务" style="text;html=1;strokeColor=none;fillColor=none;align=center;verticalAlign=middle;whiteSpace=wrap;rounded=0;fontStyle=0;fontSize=10;" parent="1" vertex="1">
          <mxGeometry x="95" y="190" width="60" height="30" as="geometry" />
        </mxCell>
        <mxCell id="6dN66q1XNVDlSJuSXiCx-39" value="获取本地账号" style="text;html=1;strokeColor=none;fillColor=none;align=center;verticalAlign=middle;whiteSpace=wrap;rounded=0;fontStyle=0;fontSize=10;" parent="1" vertex="1">
          <mxGeometry x="95" y="224" width="75" height="30" as="geometry" />
        </mxCell>
        <mxCell id="6dN66q1XNVDlSJuSXiCx-40" value="获取信任" style="text;html=1;strokeColor=none;fillColor=none;align=center;verticalAlign=middle;whiteSpace=wrap;rounded=0;fontStyle=0;fontSize=10;" parent="1" vertex="1">
          <mxGeometry x="95" y="259" width="60" height="30" as="geometry" />
        </mxCell>
        <mxCell id="6dN66q1XNVDlSJuSXiCx-41" value="修改协议" style="text;html=1;strokeColor=none;fillColor=none;align=center;verticalAlign=middle;whiteSpace=wrap;rounded=0;fontStyle=0;fontSize=10;" parent="1" vertex="1">
          <mxGeometry x="255" y="190" width="60" height="30" as="geometry" />
        </mxCell>
        <mxCell id="6dN66q1XNVDlSJuSXiCx-42" value="安装后门" style="text;html=1;strokeColor=none;fillColor=none;align=center;verticalAlign=middle;whiteSpace=wrap;rounded=0;fontStyle=0;fontSize=10;" parent="1" vertex="1">
          <mxGeometry x="255" y="220" width="60" height="30" as="geometry" />
        </mxCell>
        <mxCell id="6dN66q1XNVDlSJuSXiCx-43" value="多级代理" style="text;html=1;strokeColor=none;fillColor=none;align=center;verticalAlign=middle;whiteSpace=wrap;rounded=0;fontStyle=0;fontSize=10;" parent="1" vertex="1">
          <mxGeometry x="255" y="254" width="60" height="30" as="geometry" />
        </mxCell>
        <mxCell id="6dN66q1XNVDlSJuSXiCx-44" value="流量重复" style="text;html=1;strokeColor=none;fillColor=none;align=center;verticalAlign=middle;whiteSpace=wrap;rounded=0;fontStyle=0;fontSize=10;" parent="1" vertex="1">
          <mxGeometry x="335" y="190" width="60" height="30" as="geometry" />
        </mxCell>
        <mxCell id="6dN66q1XNVDlSJuSXiCx-45" value="数据混淆" style="text;html=1;strokeColor=none;fillColor=none;align=center;verticalAlign=middle;whiteSpace=wrap;rounded=0;fontStyle=0;fontSize=10;" parent="1" vertex="1">
          <mxGeometry x="335" y="220" width="60" height="30" as="geometry" />
        </mxCell>
        <mxCell id="6dN66q1XNVDlSJuSXiCx-46" value="获取数据库数据" style="text;html=1;strokeColor=none;fillColor=none;align=center;verticalAlign=middle;whiteSpace=wrap;rounded=0;fontStyle=0;fontSize=10;" parent="1" vertex="1">
          <mxGeometry x="320" y="256" width="95" height="30" as="geometry" />
        </mxCell>
        <mxCell id="6dN66q1XNVDlSJuSXiCx-47" value="删除账号" style="text;html=1;strokeColor=none;fillColor=none;align=center;verticalAlign=middle;whiteSpace=wrap;rounded=0;fontStyle=0;fontSize=10;" parent="1" vertex="1">
          <mxGeometry x="420" y="190" width="60" height="30" as="geometry" />
        </mxCell>
        <mxCell id="6dN66q1XNVDlSJuSXiCx-48" value="系统崩溃" style="text;html=1;strokeColor=none;fillColor=none;align=center;verticalAlign=middle;whiteSpace=wrap;rounded=0;fontStyle=0;fontSize=10;" parent="1" vertex="1">
          <mxGeometry x="420" y="220" width="60" height="30" as="geometry" />
        </mxCell>
        <mxCell id="6dN66q1XNVDlSJuSXiCx-49" value="服务停止" style="text;html=1;strokeColor=none;fillColor=none;align=center;verticalAlign=middle;whiteSpace=wrap;rounded=0;fontStyle=0;fontSize=10;" parent="1" vertex="1">
          <mxGeometry x="420" y="254" width="60" height="30" as="geometry" />
        </mxCell>
        <mxCell id="6dN66q1XNVDlSJuSXiCx-50" value="......" style="text;html=1;strokeColor=none;fillColor=none;align=center;verticalAlign=middle;whiteSpace=wrap;rounded=0;fontStyle=0;fontSize=10;" parent="1" vertex="1">
          <mxGeometry x="-70" y="284" width="65" height="30" as="geometry" />
        </mxCell>
        <mxCell id="6dN66q1XNVDlSJuSXiCx-51" value="......" style="text;html=1;strokeColor=none;fillColor=none;align=center;verticalAlign=middle;whiteSpace=wrap;rounded=0;fontStyle=0;fontSize=10;" parent="1" vertex="1">
          <mxGeometry x="9" y="286" width="65" height="30" as="geometry" />
        </mxCell>
        <mxCell id="6dN66q1XNVDlSJuSXiCx-52" value="......" style="text;html=1;strokeColor=none;fillColor=none;align=center;verticalAlign=middle;whiteSpace=wrap;rounded=0;fontStyle=0;fontSize=10;" parent="1" vertex="1">
          <mxGeometry x="87" y="284" width="65" height="30" as="geometry" />
        </mxCell>
        <mxCell id="6dN66q1XNVDlSJuSXiCx-53" value="......" style="text;html=1;strokeColor=none;fillColor=none;align=center;verticalAlign=middle;whiteSpace=wrap;rounded=0;fontStyle=0;fontSize=10;" parent="1" vertex="1">
          <mxGeometry x="254" y="285" width="65" height="30" as="geometry" />
        </mxCell>
        <mxCell id="6dN66q1XNVDlSJuSXiCx-54" value="......" style="text;html=1;strokeColor=none;fillColor=none;align=center;verticalAlign=middle;whiteSpace=wrap;rounded=0;fontStyle=0;fontSize=10;" parent="1" vertex="1">
          <mxGeometry x="333" y="287" width="65" height="30" as="geometry" />
        </mxCell>
        <mxCell id="6dN66q1XNVDlSJuSXiCx-55" value="......" style="text;html=1;strokeColor=none;fillColor=none;align=center;verticalAlign=middle;whiteSpace=wrap;rounded=0;fontStyle=0;fontSize=10;" parent="1" vertex="1">
          <mxGeometry x="411" y="285" width="65" height="30" as="geometry" />
        </mxCell>
        <mxCell id="6dN66q1XNVDlSJuSXiCx-56" value="......." style="text;html=1;strokeColor=none;fillColor=none;align=center;verticalAlign=middle;whiteSpace=wrap;rounded=0;fontStyle=0;fontSize=10;" parent="1" vertex="1">
          <mxGeometry x="170" y="288.5" width="70" height="25" as="geometry" />
        </mxCell>
      </root>
    </mxGraphModel>
  </diagram>
</mxfile>
